<svg xmlns="http://www.w3.org/2000/svg" viewBox="0 0 24 24" width="512" height="512">
    <linearGradient id="gradL" x1="0%" y1="0%" x2="100%" y2="100%">
        <stop offset="0%" style="stop-color:#4F46E5;stop-opacity:1" />
        <stop offset="100%" style="stop-color:#7C3AED;stop-opacity:1" />
    </linearGradient>
    <rect width="24" height="24" fill="#FFFFFF" />
    
    <!-- Option L: Rounded Arrow with Sharp Trails -->
    <!-- Lengths: 2, 4, 8 (Ratio = 2) -->
    
    <!-- Segment 3 (Main Arrow): width 8 (x=12 to x=20) -->
    <!-- Opacity: 100% -->
    <path d="M 17.11 12.75 L 12.5 12.75 A 0.5 0.5 0 0 1 12 12.25 L 12 11.75 A 0.5 0.5 0 0 1 12.5 11.25 L 17.11 11.25 L 13.284 7.424 A 0.5 0.5 0 0 1 13.284 6.716 L 13.646 6.354 A 0.5 0.5 0 0 1 14.354 6.354 L 19.646 11.646 A 0.5 0.5 0 0 1 19.646 12.354 L 14.354 17.646 A 0.5 0.5 0 0 1 13.646 17.646 L 13.284 17.284 A 0.5 0.5 0 0 1 13.284 16.576 Z" fill="url(#gradL)" />    
    
    <!-- Segment 2 (Middle Trail): width 4 (x=7 to x=11, gap=1) -->
    <!-- Opacity: 60% -->
    <rect x="7" y="11.25" width="4" height="1.5" fill="url(#gradL)" opacity="0.6" />
    
    <!-- Segment 1 (Left Trail): width 2 (x=4 to x=6, gap=1) -->
    <!-- Opacity: 30% -->
    <rect x="4" y="11.25" width="2" height="1.5" fill="url(#gradL)" opacity="0.3" />
</svg>
